<svg width="400" height="400" viewBox="0 0 400 400" xmlns="http://www.w3.org/2000/svg" xmlns:xlink="http://www.w3.org/1999/xlink"><g><path d="M206.096 36.864 C 205.823 37.137,205.600 37.491,205.600 37.652 C 205.600 37.813,205.079 39.082,204.443 40.472 C 203.806 41.862,202.883 43.900,202.392 45.000 C 201.900 46.100,200.891 48.318,200.149 49.929 C 199.407 51.540,198.800 52.917,198.800 52.989 C 198.800 53.062,198.103 54.623,197.250 56.460 C 194.523 62.337,193.549 64.473,190.802 70.600 C 189.322 73.900,185.999 81.280,183.417 87.000 C 180.834 92.720,178.359 98.210,177.916 99.200 C 177.151 100.910,176.463 102.437,174.404 107.000 C 173.908 108.100,172.804 110.503,171.951 112.340 C 171.098 114.177,170.400 115.747,170.400 115.830 C 170.400 115.913,169.500 117.879,168.400 120.200 C 167.300 122.521,166.400 124.501,166.400 124.600 C 166.400 124.699,165.837 125.999,165.150 127.490 C 164.462 128.980,160.883 136.860,157.197 145.000 C 153.510 153.140,150.043 160.790,149.492 162.000 C 148.941 163.210,148.086 165.100,147.594 166.200 C 147.101 167.300,146.091 169.518,145.349 171.129 C 144.607 172.740,144.000 174.117,144.000 174.189 C 144.000 174.262,143.303 175.823,142.450 177.660 C 140.879 181.046,139.634 183.777,138.011 187.400 C 137.518 188.500,136.573 190.570,135.911 192.000 C 135.250 193.430,134.121 195.950,133.403 197.600 C 131.901 201.055,130.620 203.872,128.152 209.145 C 127.189 211.205,126.400 212.955,126.400 213.034 C 126.400 213.183,125.234 215.776,122.905 220.800 C 122.141 222.450,120.799 225.420,119.923 227.400 C 119.047 229.380,117.876 231.990,117.322 233.200 C 116.426 235.155,114.271 239.937,111.915 245.200 C 111.471 246.190,110.697 247.900,110.195 249.000 C 109.692 250.100,108.705 252.260,108.001 253.800 C 107.297 255.340,105.996 258.220,105.110 260.200 C 103.018 264.875,101.993 267.133,100.295 270.800 C 99.531 272.450,98.319 275.150,97.602 276.800 C 96.886 278.450,95.710 281.060,94.990 282.600 C 94.270 284.140,90.888 291.610,87.475 299.200 C 84.062 306.790,80.729 314.170,80.068 315.600 C 79.407 317.030,78.150 319.820,77.275 321.800 C 76.401 323.780,75.059 326.750,74.294 328.400 C 73.529 330.050,72.499 332.300,72.006 333.400 C 69.729 338.483,67.745 342.863,66.149 346.329 C 65.407 347.940,64.800 349.317,64.800 349.389 C 64.800 349.462,64.102 351.023,63.249 352.860 C 62.396 354.697,61.299 357.100,60.811 358.200 C 60.323 359.300,59.671 360.723,59.362 361.361 C 59.053 362.000,58.800 362.585,58.800 362.661 C 58.800 362.948,340.760 362.787,340.921 362.500 C 341.013 362.335,336.878 352.030,331.731 339.600 C 326.584 327.170,322.265 316.730,322.132 316.400 C 322.000 316.070,321.016 313.702,319.946 311.138 C 318.876 308.575,318.000 306.375,318.000 306.250 C 318.000 306.126,317.565 305.073,317.034 303.912 C 316.503 302.750,315.615 300.630,315.061 299.200 C 313.675 295.625,311.730 290.939,310.786 288.904 C 310.354 287.972,310.000 287.099,310.000 286.965 C 310.000 286.831,309.730 286.109,309.400 285.360 C 309.070 284.612,308.530 283.388,308.200 282.640 C 307.870 281.891,307.600 281.177,307.600 281.051 C 307.600 280.926,307.169 279.873,306.643 278.712 C 306.116 277.550,304.666 274.080,303.419 271.000 C 302.173 267.920,300.910 264.860,300.613 264.200 C 300.315 263.540,298.243 258.500,296.009 253.000 C 293.774 247.500,291.707 242.460,291.415 241.800 C 291.122 241.140,290.483 239.610,289.994 238.400 C 289.505 237.190,288.872 235.660,288.587 235.000 C 288.303 234.340,277.328 207.700,264.199 175.800 C 251.070 143.900,240.082 117.260,239.782 116.600 C 239.482 115.940,238.854 114.413,238.387 113.207 C 237.920 112.001,237.127 110.111,236.624 109.007 C 236.122 107.903,235.572 106.550,235.403 106.000 C 235.234 105.450,234.781 104.280,234.396 103.400 C 234.011 102.520,233.296 100.810,232.807 99.600 C 232.317 98.390,231.678 96.860,231.385 96.200 C 230.745 94.755,225.428 81.815,224.318 79.000 C 223.884 77.900,223.095 76.050,222.565 74.888 C 222.034 73.727,221.600 72.689,221.600 72.582 C 221.600 72.418,218.758 65.528,216.987 61.400 C 216.704 60.740,215.454 57.680,214.209 54.600 C 212.965 51.520,211.702 48.460,211.404 47.800 C 211.106 47.140,210.480 45.610,210.013 44.400 C 209.545 43.190,208.806 41.390,208.369 40.400 C 207.933 39.410,207.355 38.098,207.084 37.484 C 206.693 36.595,206.492 36.468,206.096 36.864 M199.597 134.800 C 203.808 145.030,207.680 154.390,208.202 155.600 C 208.723 156.810,210.979 162.300,213.215 167.800 C 215.451 173.300,217.520 178.340,217.813 179.000 C 218.106 179.660,219.366 182.720,220.613 185.800 C 221.859 188.880,223.203 192.120,223.598 193.000 C 223.994 193.880,225.165 196.670,226.202 199.200 C 227.238 201.730,228.323 204.340,228.612 205.000 C 228.901 205.660,229.520 207.190,229.987 208.400 C 230.454 209.610,231.080 211.140,231.377 211.800 C 231.674 212.460,232.495 214.440,233.200 216.200 C 233.905 217.960,234.715 219.940,235.000 220.600 C 235.284 221.260,235.917 222.790,236.406 224.000 C 236.895 225.210,237.525 226.740,237.806 227.400 C 238.087 228.060,238.717 229.590,239.206 230.800 C 239.695 232.010,240.330 233.540,240.617 234.200 C 240.903 234.860,241.974 237.470,242.996 240.000 C 244.018 242.530,245.095 245.140,245.390 245.800 C 245.685 246.460,249.256 255.100,253.325 265.000 C 257.395 274.900,266.251 296.410,273.006 312.800 C 279.761 329.190,285.377 342.825,285.486 343.100 C 285.645 343.498,278.125 343.600,248.686 343.600 C 215.315 343.600,211.662 343.538,211.443 342.967 C 211.309 342.619,211.200 327.463,211.200 309.287 C 211.200 288.792,211.058 276.384,210.826 276.620 C 210.342 277.112,193.250 315.027,193.006 316.149 C 192.904 316.617,192.735 322.940,192.629 330.200 C 192.523 337.460,192.428 343.445,192.418 343.500 C 192.408 343.555,186.910 343.600,180.200 343.600 L 168.000 343.600 167.972 310.900 C 167.956 292.915,167.789 277.840,167.600 277.400 C 167.411 276.960,167.244 276.807,167.228 277.060 C 167.213 277.313,166.504 279.023,165.653 280.860 C 162.704 287.224,161.600 289.656,161.600 289.788 C 161.600 289.861,160.904 291.423,160.053 293.260 C 157.104 299.624,156.000 302.056,156.000 302.188 C 156.000 302.261,155.302 303.823,154.449 305.660 C 153.596 307.497,152.491 309.900,151.993 311.000 C 151.495 312.100,150.708 313.810,150.244 314.800 C 149.453 316.488,149.388 317.436,149.200 330.000 L 149.000 343.400 118.700 343.503 C 102.035 343.559,88.400 343.511,88.400 343.397 C 88.400 343.136,92.242 334.445,94.438 329.736 C 95.345 327.791,96.803 324.580,97.676 322.600 C 98.550 320.620,99.859 317.740,100.585 316.200 C 101.311 314.660,102.808 311.330,103.912 308.800 C 105.017 306.270,106.638 302.670,107.515 300.800 C 108.392 298.930,110.319 294.700,111.797 291.400 C 113.275 288.100,114.901 284.500,115.409 283.400 C 115.918 282.300,117.590 278.610,119.125 275.200 C 120.660 271.790,122.451 267.830,123.104 266.400 C 125.997 260.069,126.400 259.168,126.400 259.034 C 126.400 258.955,127.188 257.205,128.152 255.145 C 129.115 253.085,130.452 250.140,131.123 248.599 C 131.793 247.059,133.165 244.037,134.171 241.884 C 135.177 239.731,136.000 237.904,136.000 237.824 C 136.000 237.745,136.698 236.177,137.551 234.340 C 138.404 232.503,139.508 230.100,140.004 229.000 C 141.903 224.792,142.908 222.551,143.502 221.200 C 143.840 220.430,144.991 217.943,146.059 215.673 C 147.126 213.403,148.000 211.472,148.000 211.383 C 148.000 211.293,148.516 210.091,149.147 208.710 C 149.778 207.330,150.699 205.300,151.193 204.200 C 151.687 203.100,152.589 201.120,153.196 199.800 C 153.803 198.480,154.577 196.770,154.916 196.000 C 155.943 193.662,157.624 189.914,158.592 187.800 C 159.096 186.700,159.910 184.900,160.401 183.800 C 160.892 182.700,162.083 180.115,163.047 178.055 C 164.011 175.995,164.800 174.245,164.800 174.166 C 164.800 173.992,166.310 170.653,168.648 165.655 C 169.611 163.595,170.400 161.845,170.400 161.766 C 170.400 161.593,171.960 158.149,174.050 153.708 C 174.903 151.898,175.600 150.336,175.600 150.237 C 175.600 150.139,176.206 148.740,176.948 147.129 C 179.632 141.294,180.537 139.305,183.008 133.800 C 184.390 130.720,186.634 125.770,187.994 122.800 C 189.354 119.830,190.639 116.966,190.848 116.435 C 191.431 114.960,191.420 114.936,199.597 134.800 " stroke="none" fill="white" fill-rule="evenodd"></path><path d="M0.000 200.000 L 0.000 400.000 200.000 400.000 L 400.000 400.000 400.000 200.000 L 400.000 0.000 200.000 0.000 L 0.000 0.000 0.000 200.000 M208.369 40.400 C 208.806 41.390,209.545 43.190,210.013 44.400 C 210.480 45.610,211.106 47.140,211.404 47.800 C 211.702 48.460,212.965 51.520,214.209 54.600 C 215.454 57.680,216.704 60.740,216.987 61.400 C 218.758 65.528,221.600 72.418,221.600 72.582 C 221.600 72.689,222.034 73.727,222.565 74.888 C 223.095 76.050,223.884 77.900,224.318 79.000 C 225.428 81.815,230.745 94.755,231.385 96.200 C 231.678 96.860,232.317 98.390,232.807 99.600 C 233.296 100.810,234.011 102.520,234.396 103.400 C 234.781 104.280,235.234 105.450,235.403 106.000 C 235.572 106.550,236.122 107.903,236.624 109.007 C 237.127 110.111,237.920 112.001,238.387 113.207 C 238.854 114.413,239.482 115.940,239.782 116.600 C 240.082 117.260,251.070 143.900,264.199 175.800 C 277.328 207.700,288.303 234.340,288.587 235.000 C 288.872 235.660,289.505 237.190,289.994 238.400 C 290.483 239.610,291.122 241.140,291.415 241.800 C 291.707 242.460,293.774 247.500,296.009 253.000 C 298.243 258.500,300.315 263.540,300.613 264.200 C 300.910 264.860,302.173 267.920,303.419 271.000 C 304.666 274.080,306.116 277.550,306.643 278.712 C 307.169 279.873,307.600 280.926,307.600 281.051 C 307.600 281.177,307.870 281.891,308.200 282.640 C 308.530 283.388,309.070 284.612,309.400 285.360 C 309.730 286.109,310.000 286.831,310.000 286.965 C 310.000 287.099,310.354 287.972,310.786 288.904 C 311.730 290.939,313.675 295.625,315.061 299.200 C 315.615 300.630,316.503 302.750,317.034 303.912 C 317.565 305.073,318.000 306.126,318.000 306.250 C 318.000 306.375,318.876 308.575,319.946 311.138 C 321.016 313.702,322.000 316.070,322.132 316.400 C 322.265 316.730,326.584 327.170,331.731 339.600 C 336.878 352.030,341.013 362.335,340.921 362.500 C 340.760 362.787,58.800 362.948,58.800 362.661 C 58.800 362.585,59.053 362.000,59.362 361.361 C 59.671 360.723,60.323 359.300,60.811 358.200 C 61.299 357.100,62.396 354.697,63.249 352.860 C 64.102 351.023,64.800 349.462,64.800 349.389 C 64.800 349.317,65.407 347.940,66.149 346.329 C 67.745 342.863,69.729 338.483,72.006 333.400 C 72.499 332.300,73.529 330.050,74.294 328.400 C 75.059 326.750,76.401 323.780,77.275 321.800 C 78.150 319.820,79.407 317.030,80.068 315.600 C 80.729 314.170,84.062 306.790,87.475 299.200 C 90.888 291.610,94.270 284.140,94.990 282.600 C 95.710 281.060,96.886 278.450,97.602 276.800 C 98.319 275.150,99.531 272.450,100.295 270.800 C 101.993 267.133,103.018 264.875,105.110 260.200 C 105.996 258.220,107.297 255.340,108.001 253.800 C 108.705 252.260,109.692 250.100,110.195 249.000 C 110.697 247.900,111.471 246.190,111.915 245.200 C 114.271 239.937,116.426 235.155,117.322 233.200 C 117.876 231.990,119.047 229.380,119.923 227.400 C 120.799 225.420,122.141 222.450,122.905 220.800 C 125.234 215.776,126.400 213.183,126.400 213.034 C 126.400 212.955,127.189 211.205,128.152 209.145 C 130.620 203.872,131.901 201.055,133.403 197.600 C 134.121 195.950,135.250 193.430,135.911 192.000 C 136.573 190.570,137.518 188.500,138.011 187.400 C 139.634 183.777,140.879 181.046,142.450 177.660 C 143.303 175.823,144.000 174.262,144.000 174.189 C 144.000 174.117,144.607 172.740,145.349 171.129 C 146.091 169.518,147.101 167.300,147.594 166.200 C 148.086 165.100,148.941 163.210,149.492 162.000 C 150.043 160.790,153.510 153.140,157.197 145.000 C 160.883 136.860,164.462 128.980,165.150 127.490 C 165.837 125.999,166.400 124.699,166.400 124.600 C 166.400 124.501,167.300 122.521,168.400 120.200 C 169.500 117.879,170.400 115.913,170.400 115.830 C 170.400 115.747,171.098 114.177,171.951 112.340 C 172.804 110.503,173.908 108.100,174.404 107.000 C 176.463 102.437,177.151 100.910,177.916 99.200 C 178.359 98.210,180.834 92.720,183.417 87.000 C 185.999 81.280,189.322 73.900,190.802 70.600 C 193.549 64.473,194.523 62.337,197.250 56.460 C 198.103 54.623,198.800 53.062,198.800 52.989 C 198.800 52.917,199.407 51.540,200.149 49.929 C 200.891 48.318,201.900 46.100,202.392 45.000 C 202.883 43.900,203.806 41.862,204.443 40.472 C 205.079 39.082,205.600 37.813,205.600 37.652 C 205.600 36.570,206.631 36.453,207.084 37.484 C 207.355 38.098,207.933 39.410,208.369 40.400 M190.848 116.435 C 190.639 116.966,189.354 119.830,187.994 122.800 C 186.634 125.770,184.390 130.720,183.008 133.800 C 180.537 139.305,179.632 141.294,176.948 147.129 C 176.206 148.740,175.600 150.139,175.600 150.237 C 175.600 150.336,174.903 151.898,174.050 153.708 C 171.960 158.149,170.400 161.593,170.400 161.766 C 170.400 161.845,169.611 163.595,168.648 165.655 C 166.310 170.653,164.800 173.992,164.800 174.166 C 164.800 174.245,164.011 175.995,163.047 178.055 C 162.083 180.115,160.892 182.700,160.401 183.800 C 159.910 184.900,159.096 186.700,158.592 187.800 C 157.624 189.914,155.943 193.662,154.916 196.000 C 154.577 196.770,153.803 198.480,153.196 199.800 C 152.589 201.120,151.687 203.100,151.193 204.200 C 150.699 205.300,149.778 207.330,149.147 208.710 C 148.516 210.091,148.000 211.293,148.000 211.383 C 148.000 211.472,147.126 213.403,146.059 215.673 C 144.991 217.943,143.840 220.430,143.502 221.200 C 142.908 222.551,141.903 224.792,140.004 229.000 C 139.508 230.100,138.404 232.503,137.551 234.340 C 136.698 236.177,136.000 237.745,136.000 237.824 C 136.000 237.904,135.177 239.731,134.171 241.884 C 133.165 244.037,131.793 247.059,131.123 248.599 C 130.452 250.140,129.115 253.085,128.152 255.145 C 127.188 257.205,126.400 258.955,126.400 259.034 C 126.400 259.168,125.997 260.069,123.104 266.400 C 122.451 267.830,120.660 271.790,119.125 275.200 C 117.590 278.610,115.918 282.300,115.409 283.400 C 114.901 284.500,113.275 288.100,111.797 291.400 C 110.319 294.700,108.392 298.930,107.515 300.800 C 106.638 302.670,105.017 306.270,103.912 308.800 C 102.808 311.330,101.311 314.660,100.585 316.200 C 99.859 317.740,98.550 320.620,97.676 322.600 C 96.803 324.580,95.345 327.791,94.438 329.736 C 92.242 334.445,88.400 343.136,88.400 343.397 C 88.400 343.511,102.035 343.559,118.700 343.503 L 149.000 343.400 149.200 330.000 C 149.388 317.436,149.453 316.488,150.244 314.800 C 150.708 313.810,151.495 312.100,151.993 311.000 C 152.491 309.900,153.596 307.497,154.449 305.660 C 155.302 303.823,156.000 302.261,156.000 302.188 C 156.000 302.056,157.104 299.624,160.053 293.260 C 160.904 291.423,161.600 289.861,161.600 289.788 C 161.600 289.656,162.704 287.224,165.653 280.860 C 166.504 279.023,167.213 277.313,167.228 277.060 C 167.244 276.807,167.411 276.960,167.600 277.400 C 167.789 277.840,167.956 292.915,167.972 310.900 L 168.000 343.600 180.200 343.600 C 186.910 343.600,192.408 343.555,192.418 343.500 C 192.428 343.445,192.523 337.460,192.629 330.200 C 192.735 322.940,192.904 316.617,193.006 316.149 C 193.250 315.027,210.342 277.112,210.826 276.620 C 211.058 276.384,211.200 288.792,211.200 309.287 C 211.200 327.463,211.309 342.619,211.443 342.967 C 211.662 343.538,215.315 343.600,248.686 343.600 C 278.125 343.600,285.645 343.498,285.486 343.100 C 285.377 342.825,279.761 329.190,273.006 312.800 C 266.251 296.410,257.395 274.900,253.325 265.000 C 249.256 255.100,245.685 246.460,245.390 245.800 C 245.095 245.140,244.018 242.530,242.996 240.000 C 241.974 237.470,240.903 234.860,240.617 234.200 C 240.330 233.540,239.695 232.010,239.206 230.800 C 238.717 229.590,238.087 228.060,237.806 227.400 C 237.525 226.740,236.895 225.210,236.406 224.000 C 235.917 222.790,235.284 221.260,235.000 220.600 C 234.715 219.940,233.905 217.960,233.200 216.200 C 232.495 214.440,231.674 212.460,231.377 211.800 C 231.080 211.140,230.454 209.610,229.987 208.400 C 229.520 207.190,228.901 205.660,228.612 205.000 C 228.323 204.340,227.238 201.730,226.202 199.200 C 225.165 196.670,223.994 193.880,223.598 193.000 C 223.203 192.120,221.859 188.880,220.613 185.800 C 219.366 182.720,218.106 179.660,217.813 179.000 C 217.520 178.340,215.451 173.300,213.215 167.800 C 210.979 162.300,208.723 156.810,208.202 155.600 C 207.680 154.390,203.808 145.030,199.597 134.800 C 191.420 114.936,191.431 114.960,190.848 116.435 " stroke="none" fill="transparent" fill-rule="evenodd"></path></g></svg>